HIERARCHY
ROOT Hips
{
  OFFSET 267.745 86.9975 -272.335
  CHANNELS 6 Xposition Yposition Zposition Zrotation Xrotation Yrotation
  JOINT LeftUpLeg
  {
    OFFSET 8.64259 1.95398 -2.38835
    CHANNELS 3 Zrotation Xrotation Yrotation
    JOINT LeftLeg
    {
      OFFSET 43.7702 0 0
      CHANNELS 3 Zrotation Xrotation Yrotation
      JOINT LeftFoot
      {
        OFFSET 40.6238 0 0
        CHANNELS 3 Zrotation Xrotation Yrotation
        JOINT LeftToeBase
        {
          OFFSET 12.7242 0 0
          CHANNELS 3 Zrotation Xrotation Yrotation
          End Site
          {
            OFFSET 0 0 0
          }
        }
      }
    }
  }
  JOINT RightUpLeg
  {
    OFFSET -8.2249 1.95398 -2.59336
    CHANNELS 3 Zrotation Xrotation Yrotation
    JOINT RightLeg
    {
      OFFSET 43.5653 0 0
      CHANNELS 3 Zrotation Xrotation Yrotation
      JOINT RightFoot
      {
        OFFSET 40.6238 0 0
        CHANNELS 3 Zrotation Xrotation Yrotation
        JOINT RightToeBase
        {
          OFFSET 12.7242 0 0
          CHANNELS 3 Zrotation Xrotation Yrotation
          End Site
          {
            OFFSET 0 0 0
          }
        }
      }
    }
  }
  JOINT Spine
  {
    OFFSET 0.165834 0.87714 6.61349
    CHANNELS 3 Zrotation Xrotation Yrotation
    JOINT Spine1
    {
      OFFSET 7.38963 1.71661e-005 0
      CHANNELS 3 Zrotation Xrotation Yrotation
      JOINT Spine2
      {
        OFFSET 11.9445 1.14441e-005 0
        CHANNELS 3 Zrotation Xrotation Yrotation
        JOINT Spine3
        {
          OFFSET 14.7254 4.19617e-005 0
          CHANNELS 3 Zrotation Xrotation Yrotation
          JOINT Spine4
          {
            OFFSET 10.9679 0 0
            CHANNELS 3 Zrotation Xrotation Yrotation
            JOINT RightShoulder
            {
              OFFSET 2.46616 -1.6653 3.69651
              CHANNELS 3 Zrotation Xrotation Yrotation
              JOINT RightArm
              {
                OFFSET 13.0012 0 0
                CHANNELS 3 Zrotation Xrotation Yrotation
                JOINT RightForeArm
                {
                  OFFSET 28.7848 1.52588e-005 0
                  CHANNELS 3 Zrotation Xrotation Yrotation
                  JOINT RightHand
                  {
                    OFFSET 26.5688 1.52588e-005 0
                    CHANNELS 3 Zrotation Xrotation Yrotation
                    End Site
                    {
                      OFFSET 0 0 0
                    }
                  }
                }
              }
            }
            JOINT LeftShoulder
            {
              OFFSET 2.38034 -1.29275 -3.7523
              CHANNELS 3 Zrotation Xrotation Yrotation
              JOINT LeftArm
              {
                OFFSET 16.3182 6.10352e-005 0
                CHANNELS 3 Zrotation Xrotation Yrotation
                JOINT LeftForeArm
                {
                  OFFSET 27.0901 0 0
                  CHANNELS 3 Zrotation Xrotation Yrotation
                  JOINT LeftHand
                  {
                    OFFSET 24.5451 1.52588e-005 0
                    CHANNELS 3 Zrotation Xrotation Yrotation
                    End Site
                    {
                      OFFSET 0 0 0
                    }
                  }
                }
              }
            }
            JOINT Neck
            {
              OFFSET 5.0226 -0.0266342 0
              CHANNELS 3 Zrotation Xrotation Yrotation
              JOINT Head
              {
                OFFSET 6.69364 2.86102e-005 0
                CHANNELS 3 Zrotation Xrotation Yrotation
                End Site
                {
                  OFFSET 0 0 0
                }
              }
            }
          }
        }
      }
    }
  }
}
MOTION
Frames:	15
Frame Time:	0.0416667
-304.252 74.2795 320.113 122.612 62.3069 57.3418 178.418 27.2049 71.1771 -74.8013 31.2287 6.95968 77.768 34.9289 35.473 120.787 -8.53242 4.09749 -145.606 -32.189 155.375 -115.415 16.9048 -82.2925 -47.0708 -66.8055 57.286 -7.83551 35.9401 -49.6943 -1.82214 5.46788 -89.892 15.9596 -3.54299 0.790172 4.29315 -3.50477 0.945514 -18.2808 -3.61647 -0.312578 1.73185 -3.61644 -0.312585 117.465 -6.54179 -34.088 75.0144 -57.4263 17.4824 -1.95413 10.1957 -77.3003 9.12169 8.24138 75.5238 -54.654 -34.0759 138.705 158.313 -41.7558 -110.47 -130.712 33.707 -109.55 38.4562 -4.1356 -15.2111 30.3352 20.6689 -3.74887 -126.695 6.4139 12.4448 
-304.564 74.1871 320.371 121.541 62.3978 59.0011 178.316 27.9658 71.887 -75.15 31.4146 6.98435 78.4311 36.1457 35.6782 121.319 -9.0692 3.52928 -146.194 -31.8871 155.536 -115.251 16.5299 -82.5168 -46.8353 -69.1404 59.3007 -8.81566 36.3442 -49.007 -1.80859 5.43754 -89.9246 16.0193 -3.53222 0.725526 4.35285 -3.49687 0.880461 -18.2208 -3.58675 -0.370982 1.79185 -3.58678 -0.370998 117.518 -6.79436 -34.2249 75.5434 -57.3792 18.1303 -1.80826 10.2743 -77.1312 9.50211 8.44998 74.7569 -54.8806 -33.4242 138.668 158.709 -42.0294 -110.184 -130.928 33.6619 -109.142 37.9418 -3.99253 -14.9738 30.4223 19.8694 -4.80084 -126.968 4.7798 12.8483 
-305.458 73.9224 321.106 118.384 62.5817 63.8599 177.949 30.2229 73.9991 -76.191 31.9531 7.06824 80.269 39.4849 36.1331 122.804 -10.7666 1.76563 -147.811 -31.0741 156.076 -116.022 15.2779 -82.8319 -38.4009 -75.292 73.1808 -12.2158 37.4758 -46.3475 -1.77011 5.34998 -90.0252 16.1912 -3.50586 0.5264 4.52484 -3.47929 0.68037 -18.0479 -3.5018 -0.552923 1.96478 -3.50178 -0.552921 117.677 -7.52957 -34.5932 76.955 -57.2685 19.8894 -1.42152 10.4993 -76.6617 10.6442 9.04744 72.5547 -55.4926 -31.6097 138.595 159.933 -42.7791 -109.276 -131.524 33.5263 -108.011 36.4309 -3.59072 -14.2875 30.5417 17.6315 -7.63528 -127.625 0.16238 13.9597 
-306.854 73.5094 322.254 113.242 62.6338 71.67 177.116 33.9942 77.4916 -77.9423 32.8176 7.22094 82.9642 44.2543 36.4811 124.811 -13.7409 -1.24111 -150.114 -29.9594 157.137 -120.053 12.9027 -82.8094 16.6967 -77.4505 137.117 -19.3562 38.5979 -39.6532 -1.71129 5.20876 -90.1978 16.4684 -3.47576 0.18554 4.80206 -3.46421 0.338512 -17.7689 -3.37064 -0.868873 2.24375 -3.37062 -0.868869 117.946 -8.69851 -35.1098 78.9115 -57.1795 22.4185 -0.901854 10.8547 -75.9743 12.5819 9.97261 69.0871 -56.3575 -28.9064 138.568 162.069 -43.8505 -107.624 -132.384 33.2813 -106.349 33.9478 -2.99152 -13.2005 30.3861 14.2943 -11.5885 -128.31 -6.87952 15.6124 
-308.652 72.9741 323.743 106.54 62.3324 81.6255 175.442 39.2381 82.2003 -80.3712 33.9931 7.41311 86.0768 49.5877 36.4365 126.498 -17.649 -5.1588 -152.543 -28.7531 158.76 -127.394 9.33932 -83.1183 51.4589 -57.8222 -178.106 -29.67 36.9346 -27.3003 -1.64947 5.01432 -90.4196 16.8504 -3.46524 -0.247075 5.18408 -3.47275 -0.0941463 -17.3843 -3.23063 -1.27817 2.62837 -3.23062 -1.27817 118.298 -10.2046 -35.7121 81.166 -57.2229 25.4925 -0.366855 11.3313 -75.1855 15.34 11.108 64.5382 -57.361 -25.5901 138.65 165.12 -45.0683 -105.187 -133.326 32.8646 -104.391 30.5024 -2.28349 -11.7937 29.6359 10.2524 -15.9889 -128.596 -15.7111 17.7284 
-310.781 72.3063 325.523 99.108 62.1559 92.5114 171.946 45.768 87.9751 -83.4849 35.261 7.7782 89.3505 54.658 35.5798 127.176 -21.6121 -9.28481 -153.601 -26.9672 161.191 -135.188 4.51826 -84.9785 56.9576 -25.1541 -165.727 -35.8314 30.4144 -14.2676 -1.67643 4.77359 -90.6516 17.3255 -3.63616 -0.66463 5.65957 -3.66188 -0.503748 -16.9088 -3.26816 -1.72777 3.10389 -3.26816 -1.72776 118.673 -11.8985 -36.3892 83.6846 -57.4937 29.1269 0.0943866 11.9372 -74.4457 18.8662 12.2662 59.1057 -58.4463 -21.8722 138.848 168.913 -46.2951 -102.095 -134.121 32.1972 -102.393 26.1199 -1.5726 -10.2005 28.0377 5.87169 -20.3321 -128.052 -25.7115 20.3951 
-313.218 71.4969 327.537 90.8836 62.4037 105.04 164.532 53.1161 96.5113 -87.3357 35.5784 8.51347 94.0113 58.8519 32.1315 126.838 -24.8337 -12.9504 -154.463 -21.7694 163.533 -116.249 -2.62865 -90.1643 54.43 -10.1208 -140.395 -33.6743 23.0122 -6.36677 -1.85271 4.51091 -90.9757 17.8419 -4.1501 -1.20235 6.17723 -4.19898 -1.01824 -16.3958 -3.59675 -2.39527 3.61682 -3.59675 -2.39528 118.99 -13.6075 -37.1632 86.6168 -58.0574 33.5447 0.445093 12.7072 -73.9459 22.9827 13.2159 53.0255 -59.5978 -17.9095 139.122 173.131 -47.4662 -98.6258 -134.529 31.2292 -100.597 20.8706 -0.963409 -8.60954 25.4537 1.43196 -24.2754 -126.239 -36.278 23.8561 
-315.836 70.6307 329.693 82.8781 62.1283 117.977 151.833 59.6931 109.515 -91.5923 36.6234 9.41304 96.9363 61.9216 29.7758 125.909 -27.0891 -15.868 -158.72 -12.8082 162.821 -95.4704 -12.7926 -75.2592 42.353 -4.61113 -121.984 -27.4065 17.8355 -2.86186 -2.07803 4.2739 -91.3753 18.3001 -4.80166 -1.86578 6.63695 -4.87909 -1.65225 -15.941 -4.01893 -3.224 4.07168 -4.01892 -3.22401 119.187 -15.1835 -38.0549 90.2429 -58.9468 39.1213 0.715335 13.7152 -73.9277 27.3733 13.7396 46.5925 -60.8102 -13.8372 139.413 177.41 -48.5874 -95.0895 -134.383 29.9716 -99.1746 14.8965 -0.527383 -7.24117 21.899 -2.93209 -27.62 -122.529 -46.805 28.6029 
-318.508 69.7771 331.907 75.9373 61.254 129.576 133.734 64.1628 126.987 -95.4334 37.5972 10.1257 98.7098 63.8492 27.6978 124.802 -28.5403 -18.0479 -161.439 -5.49095 159.404 -91.7059 -29.6668 -63.5068 25.9148 5.92403 -125.587 -20.7408 14.6189 -1.6147 -2.30976 4.06265 -91.7561 18.7038 -5.45744 -2.48762 7.04239 -5.5616 -2.24449 -15.54 -4.45775 -4.01424 4.47262 -4.45775 -4.01426 119.235 -16.5431 -39.0605 94.9652 -60.1318 46.3741 0.996434 15.0778 -74.6762 31.6501 13.7141 40.1335 -62.0689 -9.77907 139.673 -178.526 -49.696 -91.7097 -133.646 28.4978 -98.185 8.41559 -0.271435 -6.28541 17.5282 -7.20525 -30.3584 -115.629 -56.6417 35.7891 
-321.175 68.9867 334.124 70.3 59.9702 139.275 112.488 65.8116 146.828 -98.6009 38.5575 10.6637 98.8893 64.7831 26.443 123.764 -29.4229 -19.6014 -158.113 -3.37426 154.975 127.248 29.5055 -141.386 174.037 10.8231 66.3377 -14.826 12.4599 -1.27196 -2.53048 3.86895 -92.0859 19.0725 -6.0657 -3.01235 7.41285 -6.19235 -2.74177 -15.1743 -4.88053 -4.69754 4.83837 -4.88053 -4.69755 119.143 -17.6647 -40.1538 101.317 -61.4376 55.9702 1.41583 16.9156 -76.5106 35.4642 13.1462 33.9465 -63.3482 -5.84056 139.874 -174.819 -50.8205 -88.5888 -132.397 26.9101 -97.5943 1.69422 -0.142324 -5.8527 12.5657 -11.3741 -32.6312 -103.085 -64.9377 47.785 
-323.758 68.0511 336.29 65.9452 58.481 147.049 91.8896 64.9704 165.378 -101.432 39.464 11.0962 97.4911 65.0035 26.1988 122.919 -29.9267 -20.6467 -148.537 -6.62045 153.124 158.663 35.5387 -154.621 -174.951 3.58692 58.6782 -9.70714 10.822 -1.21782 -2.72889 3.69133 -92.3598 19.4109 -6.60136 -3.43592 7.75294 -6.74609 -3.14121 -14.8391 -5.26449 -5.26256 5.17352 -5.26448 -5.26256 118.937 -18.5658 -41.2986 109.776 -62.4389 68.5475 2.11369 19.2882 -79.7744 38.5783 12.1473 28.2562 -64.6169 -2.10531 140.005 -171.513 -51.9653 -85.7463 -130.787 25.3075 -97.3203 -4.98121 -0.0539603 -5.96158 7.24934 -15.3704 -34.6157 -81.9466 -70.3831 67.556 
-326.191 66.8717 338.353 62.6842 56.9445 153.149 74.4495 62.4646 -179.723 -104.115 40.3363 11.5062 94.6036 64.7163 26.9993 122.327 -30.1809 -21.2759 -144.704 -5.94145 155.516 165.557 39.0845 -156.956 -170.941 -7.78784 57.5224 -5.18937 9.45134 -1.21723 -2.89947 3.52988 -92.5831 19.7191 -7.0559 -3.77193 8.0628 -7.21494 -3.45675 -14.5342 -5.59736 -5.71969 5.47845 -5.59737 -5.71968 118.653 -19.2837 -42.4586 120.029 -62.4319 83.9621 3.20126 22.0979 -84.7544 40.893 10.8801 23.1893 -65.8447 1.36775 140.069 -168.589 -53.1118 -83.157 -128.986 23.7684 -97.2689 -11.3372 0.0797415 -6.54333 1.8034 -19.0921 -36.4514 -54.8725 -71.6177 92.5474 
-328.516 65.8084 340.32 60.2749 55.4613 157.909 61.2894 59.1721 -169.28 -106.116 41.3262 12.0036 90.2152 63.9349 28.8012 122.02 -30.2613 -21.545 -143.696 -3.69614 157.816 165.646 39.4399 -157.967 -171.799 -16.7868 54.7052 -1.10017 8.24046 -1.20344 -3.04096 3.38445 -92.764 19.9974 -7.43109 -4.03848 8.34249 -7.60148 -3.70637 -14.259 -5.87544 -6.08672 5.75364 -5.87543 -6.08672 118.321 -19.861 -43.6054 130.052 -60.7888 100.29 4.69922 24.9513 -91.5087 42.428 9.50057 18.7733 -67.0085 4.54777 140.075 -166.001 -54.2319 -80.7818 -127.153 22.3404 -97.3583 -17.1624 0.311914 -7.46997 -3.58421 -22.4493 -38.2143 -32.2894 -69.157 112.477 
-330.851 64.6285 342.317 58.4984 54.0863 161.636 50.8451 55.7441 -161.751 -107.56 42.5466 12.6755 84.2477 62.5609 31.5615 122.02 -30.2083 -21.4824 -142.61 -1.95855 159.636 165.917 40.3578 -158.724 -173.664 -24.89 51.8868 2.66624 7.14235 -1.16199 -3.1545 3.25435 -92.9107 20.2467 -7.73336 -4.25173 8.59301 -7.91281 -3.90598 -14.0122 -6.09994 -6.38098 6.00041 -6.09993 -6.38099 117.965 -20.3363 -44.7198 137.09 -57.672 114.69 6.46106 27.1696 -99.6656 43.2722 8.12377 14.9661 -68.0936 7.42629 140.033 -163.699 -55.3007 -78.587 -125.408 21.0444 -97.5297 -22.3298 0.653952 -8.59902 -8.77242 -25.3906 -39.928 -17.7875 -65.0322 123.899 
-334.008 62.1232 345.168 57.1837 52.8415 164.577 40.0781 52.1012 -154.795 -108.136 44.4842 13.714 75.3402 59.2228 35.2483 122.347 -30.0414 -21.1011 -141.504 -0.585816 161.161 166.028 41.3955 -159.275 -176.709 -31.9978 48.5275 6.16701 6.13263 -1.0856 -3.24228 3.13952 -93.031 20.4687 -7.97079 -4.42493 8.81599 -8.15761 -4.06847 -13.792 -6.2746 -6.61753 6.22061 -6.2746 -6.61754 117.603 -20.7436 -45.7909 139.99 -54.1709 125.609 8.1156 28.0785 -108.253 43.5444 6.82192 11.6921 -69.0922 10.0093 139.955 -161.643 -56.2993 -76.5468 -123.835 19.884 -97.7452 -26.789 1.08533 -9.80005 -13.6629 -27.9016 -41.5868 -8.71936 -60.6406 129.595 
